<svg width="40" height="40" viewBox="0 0 40 40" fill="none" xmlns="http://www.w3.org/2000/svg">
<path d="M0 20C0 8.95431 8.95431 0 20 0V0C31.0457 0 40 8.95431 40 20V20C40 31.0457 31.0457 40 20 40V40C8.95431 40 0 31.0457 0 20V20Z" fill="#F0F7E7"/>
<path d="M24.1836 21.375L24.6758 18.1406H21.5469V16.0312C21.5469 15.1172 21.9688 14.2734 23.375 14.2734H24.8164V11.4961C24.8164 11.4961 23.5156 11.25 22.2852 11.25C19.7188 11.25 18.0312 12.832 18.0312 15.6445V18.1406H15.1484V21.375H18.0312V29.25H21.5469V21.375H24.1836Z" fill="#262C26"/>
</svg>
