<svg width="28" height="20" viewBox="0 0 28 20" fill="none" xmlns="http://www.w3.org/2000/svg">
<path d="M22.0841 8.77125L21.3411 8.87359C21.3929 9.24985 21.7178 9.52797 22.0976 9.52113L22.0841 8.77125ZM6.61328 6.36221L6.6641 7.11049C6.93898 7.09182 7.18149 6.92394 7.29574 6.67324L6.61328 6.36221ZM14.75 6.34912C14.75 5.9349 14.4142 5.59912 14 5.59912C13.5858 5.59912 13.25 5.9349 13.25 6.34912H14.75ZM14 13.6133L13.5733 14.2301C13.8301 14.4077 14.17 14.4077 14.4267 14.2301L14 13.6133ZM17.9267 11.8087C18.2674 11.573 18.3525 11.1058 18.1168 10.7652C17.8811 10.4245 17.414 10.3394 17.0733 10.5751L17.9267 11.8087ZM10.9267 10.5751C10.5861 10.3394 10.1189 10.4245 9.88324 10.7652C9.64757 11.1058 9.73267 11.573 10.0733 11.8087L10.9267 10.5751ZM22.1667 19.206C25.1842 19.206 27.5834 16.6756 27.5834 13.6133H26.0834C26.0834 15.9001 24.3039 17.706 22.1667 17.706V19.206ZM27.5834 13.6133C27.5834 10.5509 25.1842 8.0205 22.1667 8.0205V9.5205C24.3039 9.5205 26.0834 11.3265 26.0834 13.6133H27.5834ZM22.1667 8.0205C22.1345 8.0205 22.1024 8.0208 22.0706 8.02137L22.0976 9.52113C22.1207 9.52071 22.1437 9.5205 22.1667 9.5205V8.0205ZM22.8271 8.6689C22.2138 4.21674 18.5152 0.756348 14 0.756348V2.25635C17.7138 2.25635 20.8228 5.11098 21.3411 8.87359L22.8271 8.6689ZM14 0.756348C10.421 0.756348 7.35123 2.9345 5.93081 6.05118L7.29574 6.67324C8.49156 4.04936 11.0535 2.25635 14 2.25635V0.756348ZM6.56245 5.61393C3.10675 5.84866 0.416687 8.82086 0.416687 12.4026H1.91669C1.91669 9.56753 4.03708 7.28892 6.6641 7.11049L6.56245 5.61393ZM0.416687 12.4026C0.416687 16.1336 3.3382 19.206 7.00002 19.206V17.706C4.21851 17.706 1.91669 15.358 1.91669 12.4026H0.416687ZM22.1667 17.706H7.00002V19.206H22.1667V17.706ZM13.25 6.34912V13.6133H14.75V6.34912H13.25ZM17.0733 10.5751L13.5733 12.9965L14.4267 14.2301L17.9267 11.8087L17.0733 10.5751ZM14.4267 12.9965L10.9267 10.5751L10.0733 11.8087L13.5733 14.2301L14.4267 12.9965Z" fill="white"/>
</svg>
