<svg width="41" height="40" viewBox="0 0 41 40" fill="none" xmlns="http://www.w3.org/2000/svg">
<path d="M0.666687 20C0.666687 8.95431 9.62099 0 20.6667 0V0C31.7124 0 40.6667 8.95431 40.6667 20V20C40.6667 31.0457 31.7124 40 20.6667 40V40C9.62099 40 0.666687 31.0457 0.666687 20V20Z" fill="#F0F7E7"/>
<path d="M16.3073 27V16.4883H13.0378V27H16.3073ZM14.655 15.082C15.7097 15.082 16.5534 14.2031 16.5534 13.1484C16.5534 12.1289 15.7097 11.2852 14.655 11.2852C13.6354 11.2852 12.7917 12.1289 12.7917 13.1484C12.7917 14.2031 13.6354 15.082 14.655 15.082ZM28.5065 27H28.5417V21.2344C28.5417 18.4219 27.9089 16.2422 24.6042 16.2422C23.0222 16.2422 21.9675 17.1211 21.5104 17.9297H21.4753V16.4883H18.3464V27H21.6159V21.7969C21.6159 20.4258 21.862 19.125 23.5495 19.125C25.237 19.125 25.2722 20.6719 25.2722 21.9023V27H28.5065Z" fill="#262C26"/>
</svg>
