<svg width="41" height="40" viewBox="0 0 41 40" fill="none" xmlns="http://www.w3.org/2000/svg">
<path d="M0.333344 20C0.333344 8.95431 9.28765 0 20.3333 0V0C31.379 0 40.3333 8.95431 40.3333 20V20C40.3333 31.0457 31.379 40 20.3333 40V40C9.28765 40 0.333344 31.0457 0.333344 20V20Z" fill="#F0F7E7"/>
<path d="M27.4701 16.5938C28.1732 16.0664 28.806 15.4336 29.2982 14.6953C28.6654 14.9766 27.9271 15.1875 27.1888 15.2578C27.9622 14.8008 28.5247 14.0977 28.806 13.2188C28.1029 13.6406 27.2943 13.957 26.4857 14.1328C25.7826 13.3945 24.8333 12.9727 23.7787 12.9727C21.7396 12.9727 20.0872 14.625 20.0872 16.6641C20.0872 16.9453 20.1224 17.2266 20.1927 17.5078C17.1341 17.332 14.3919 15.8555 12.5638 13.6406C12.2474 14.168 12.0716 14.8008 12.0716 15.5039C12.0716 16.7695 12.7044 17.8945 13.724 18.5625C13.1263 18.5273 12.5287 18.3867 12.0365 18.1055V18.1406C12.0365 19.9336 13.3021 21.4102 14.9896 21.7617C14.7083 21.832 14.3568 21.9023 14.0404 21.9023C13.7943 21.9023 13.5833 21.8672 13.3372 21.832C13.7943 23.3086 15.1654 24.3633 16.7826 24.3984C15.5169 25.3828 13.9349 25.9805 12.2122 25.9805C11.8958 25.9805 11.6146 25.9453 11.3333 25.9102C12.9505 26.9648 14.8841 27.5625 16.9935 27.5625C23.7787 27.5625 27.4701 21.9727 27.4701 17.0859C27.4701 16.9102 27.4701 16.7695 27.4701 16.5938Z" fill="#262C26"/>
</svg>
