<svg width="22" height="16" viewBox="0 0 22 16" fill="none" xmlns="http://www.w3.org/2000/svg">
<path d="M0 0H22V16H0V0Z" fill="#D20000"/>
<path d="M0 0H3.3L11 7.71333L18.7 0H22L0 16H3.3L11 8.28667L18.7 16H22L0 0ZM22 6.4V9.6L0 6.4V9.6L22 6.4ZM9.625 0L11 6.85667L12.375 0H9.625ZM9.625 16L11 9.14333L12.375 16H9.625Z" fill="#FFE600"/>
<path d="M11 10.5702C12.4638 10.5702 13.6504 9.41955 13.6504 8.00018C13.6504 6.5808 12.4638 5.43018 11 5.43018C9.53632 5.43018 8.34973 6.5808 8.34973 8.00018C8.34973 9.41955 9.53632 10.5702 11 10.5702Z" fill="#FFE600"/>
<path fill-rule="evenodd" clip-rule="evenodd" d="M11 5.71502C9.6986 5.71502 8.6436 6.73805 8.6436 8.00002C8.6436 9.26199 9.6986 10.285 11 10.285C12.3014 10.285 13.3564 9.26199 13.3564 8.00002C13.3564 6.73805 12.3014 5.71502 11 5.71502ZM8.05579 8.00002C8.05579 6.42325 9.37396 5.14502 11 5.14502C12.6261 5.14502 13.9442 6.42325 13.9442 8.00002C13.9442 9.57679 12.6261 10.855 11 10.855C9.37396 10.855 8.05579 9.57679 8.05579 8.00002Z" fill="#D20000"/>
</svg>
