<svg width="18" height="18" viewBox="0 0 18 18" fill="none" xmlns="http://www.w3.org/2000/svg">
<path d="M4.14636 18V6.32031H0.51355V18H4.14636ZM2.31042 4.75781C3.4823 4.75781 4.4198 3.78125 4.4198 2.60938C4.4198 1.47656 3.4823 0.539062 2.31042 0.539062C1.17761 0.539062 0.240112 1.47656 0.240112 2.60938C0.240112 3.78125 1.17761 4.75781 2.31042 4.75781ZM17.7401 18V11.5938C17.7401 8.46875 17.037 6.04688 13.3651 6.04688C11.6073 6.04688 10.4354 7.02344 9.92761 7.92188H9.88855V6.32031H6.41199V18H10.0448V12.2188C10.0448 10.6953 10.3182 9.25 12.1932 9.25C14.0682 9.25 14.1073 10.9688 14.1073 12.3359V18H17.7401Z" fill="#86C232"/>
</svg>
