<svg width="51" height="50" viewBox="0 0 51 50" fill="none" xmlns="http://www.w3.org/2000/svg">
<g clip-path="url(#clip0_97_348)">
<path d="M3.30353 37.3276L12.9666 46.7714C8.92884 44.5441 5.58779 41.2789 3.30353 37.3276Z" fill="#86C232"/>
<path d="M0.466492 29.75L20.6494 49.5428C19.7494 49.3767 18.8595 49.1617 17.9838 48.8989L1.12339 32.3629C0.855277 31.5045 0.635974 30.6322 0.466492 29.75Z" fill="#86C232"/>
<path d="M0 24.543L25.9713 49.9909H25.5048C24.9145 49.9909 24.3242 49.9909 23.7435 49.9256L0.0666418 26.7266C0 26.1294 0 25.5788 0 25.0002C0 24.8509 0 24.6923 0 24.543Z" fill="#86C232"/>
<path d="M0.466498 20.2222L30.3696 49.5428C29.7032 49.6735 29.0273 49.7761 28.3513 49.8414L0.16185 22.2098C0.238012 21.538 0.333215 20.8754 0.466498 20.2222Z" fill="#86C232"/>
<path d="M1.52324 16.499L34.1777 48.5259C33.543 48.7499 32.9083 48.9458 32.2737 49.1138L0.952026 18.3467C1.10435 17.7184 1.29476 17.1025 1.52324 16.499Z" fill="#86C232"/>
<path d="M3.01792 13.2046L37.5384 47.0418C36.9576 47.3498 36.3674 47.6298 35.7581 47.8817L2.15158 14.931C2.41815 14.3524 2.70376 13.7738 3.01792 13.2046Z" fill="#86C232"/>
<path d="M4.90293 10.2651L40.5182 45.1942C39.9756 45.5955 39.4139 45.9594 38.8426 46.3047L3.80811 11.9262C4.14304 11.3541 4.50849 10.7996 4.90293 10.2651Z" fill="#86C232"/>
<path d="M23.3056 13.998V17.2081L10.558 4.75014C11.1958 4.29288 11.8527 3.81696 12.5287 3.47168L23.3056 13.998Z" fill="#86C232"/>
<path d="M23.3056 18.7945V21.846L7.98749 6.83104C8.52062 6.33645 9.0728 5.89785 9.65353 5.4126L23.3056 18.7945Z" fill="#86C232"/>
<path d="M47.4585 37.7102C47.0593 38.3765 46.6239 39.0214 46.1542 39.6419L28.218 22.0607V18.8506L31.5882 22.1541L33.7683 25.1402H34.6347L47.4585 37.7102Z" fill="#86C232"/>
<path d="M43.1648 43.0291C42.6603 43.5051 42.1367 43.9623 41.594 44.3916L5.71216 9.21988C6.15009 8.68796 6.66418 8.17471 7.10212 7.68945L23.2866 23.5536V25.1307H24.8955L43.1648 43.0291Z" fill="#86C232"/>
<path d="M45.4783 40.5285C45.0242 41.0963 44.5412 41.6414 44.0312 42.1616L26.6567 25.1403H28.2085V23.6099L45.4783 40.5285Z" fill="#86C232"/>
<path d="M51 25.0001C51.0068 29.1234 49.9664 33.1835 47.9726 36.8142L36.0627 25.1401H39.7185L32.8925 16.2095L39.3853 7.81082H33.7207L28.218 15.2763V7.81082H23.3056V12.6447L13.4426 2.9676C17.3284 0.925227 21.6879 -0.0948414 26.0959 0.00693426C30.5038 0.10871 34.8095 1.32885 38.5929 3.5483C42.3762 5.76774 45.5079 8.91067 47.6825 12.6704C49.857 16.4301 51 20.6782 51 25.0001Z" fill="#86C232"/>
<path d="M39.7185 25.1398H33.7683L31.5882 22.1536L28.218 17.5344V25.1398H23.3056V7.80127H28.218V15.2761L33.7207 7.80127H39.3853L32.8925 16.2093L39.7185 25.1398Z" fill="white"/>
</g>
<defs>
<clipPath id="clip0_97_348">
<rect width="51" height="50" fill="white"/>
</clipPath>
</defs>
</svg>
