<svg width="35" height="34" viewBox="0 0 35 34" fill="none" xmlns="http://www.w3.org/2000/svg">
<path d="M17.7256 15.5837C19.2761 15.5837 20.533 14.3151 20.533 12.7503C20.533 11.1855 19.2761 9.91699 17.7256 9.91699C16.1751 9.91699 14.9182 11.1855 14.9182 12.7503C14.9182 14.3151 16.1751 15.5837 17.7256 15.5837Z" stroke="#F8F4E3" stroke-width="2" stroke-linecap="round" stroke-linejoin="round"/>
<path d="M17.7256 29.75C17.7256 29.75 27.5515 22.8846 27.5515 14.0577C27.5515 11.4565 26.5163 8.96191 24.6736 7.12261C22.8309 5.28331 20.3316 4.25 17.7256 4.25C15.1196 4.25 12.6203 5.28331 10.7776 7.12261C8.93487 8.96191 7.89964 11.4565 7.89964 14.0577C7.89964 22.8846 17.7256 29.75 17.7256 29.75Z" stroke="#F8F4E3" stroke-width="2" stroke-linecap="round" stroke-linejoin="round"/>
</svg>
