<svg width="33" height="32" viewBox="0 0 33 32" fill="none" xmlns="http://www.w3.org/2000/svg">
<path d="M13.4265 5.67629L12.4968 6.04475L12.4968 6.04475L13.4265 5.67629ZM14.8193 9.19051L15.7489 8.82205L15.7489 8.82205L14.8193 9.19051ZM14.3958 11.888L15.167 12.5247L15.167 12.5247L14.3958 11.888ZM13.6462 12.7959L14.4174 13.4326L14.4174 13.4326L13.6462 12.7959ZM13.8077 16.3886L13.0974 17.0925L13.0974 17.0925L13.8077 16.3886ZM16.3404 18.9447L17.0507 18.2408L17.0507 18.2408L16.3404 18.9447ZM19.9003 19.1077L19.2567 18.3423L19.2567 18.3423L19.9003 19.1077ZM20.7998 18.3511L21.4435 19.1165L21.4435 19.1165L20.7998 18.3511ZM23.4727 17.9238L23.0983 18.8511L23.0983 18.8511L23.4727 17.9238ZM26.9547 19.3295L27.3291 18.4022L27.3291 18.4022L26.9547 19.3295ZM7.33847 5H10.9732V3H7.33847V5ZM12.4968 6.04475L13.8896 9.55896L15.7489 8.82205L14.3561 5.30784L12.4968 6.04475ZM13.6247 11.2513L12.8751 12.1592L14.4174 13.4326L15.167 12.5247L13.6247 11.2513ZM13.0974 17.0925L15.6301 19.6485L17.0507 18.2408L14.5181 15.6848L13.0974 17.0925ZM20.544 19.873L21.4435 19.1165L20.1562 17.5858L19.2567 18.3423L20.544 19.873ZM23.0983 18.8511L26.5804 20.2568L27.3291 18.4022L23.847 16.9965L23.0983 18.8511ZM27.6157 21.8054V25.4737H29.6157V21.8054H27.6157ZM26.1125 27C14.9223 27 5.83527 17.8423 5.83527 6.52632H3.83527C3.83527 18.9295 13.8005 29 26.1125 29V27ZM27.6157 25.4737C27.6157 26.3253 26.9341 27 26.1125 27V29C28.0559 29 29.6157 27.4125 29.6157 25.4737H27.6157ZM26.5804 20.2568C27.2015 20.5075 27.6157 21.1185 27.6157 21.8054H29.6157C29.6157 20.3116 28.7143 18.9614 27.3291 18.4022L26.5804 20.2568ZM21.4435 19.1165C21.9067 18.7269 22.5415 18.6263 23.0983 18.8511L23.847 16.9965C22.6017 16.4938 21.1841 16.7213 20.1562 17.5858L21.4435 19.1165ZM15.6301 19.6485C16.9624 20.9932 19.0951 21.0915 20.544 19.873L19.2567 18.3423C18.6058 18.8897 17.6511 18.8467 17.0507 18.2408L15.6301 19.6485ZM12.8751 12.1592C11.6736 13.6143 11.769 15.7519 13.0974 17.0925L14.5181 15.6848C13.9138 15.0749 13.8691 14.0965 14.4174 13.4326L12.8751 12.1592ZM13.8896 9.55896C14.1162 10.1305 14.0132 10.7809 13.6247 11.2513L15.167 12.5247C16.0211 11.4903 16.2433 10.0693 15.7489 8.82205L13.8896 9.55896ZM10.9732 5C11.6392 5 12.245 5.40949 12.4968 6.04475L14.3561 5.30784C13.8054 3.91825 12.468 3 10.9732 3V5ZM7.33847 3C5.39506 3 3.83527 4.58747 3.83527 6.52632H5.83527C5.83527 5.67467 6.51692 5 7.33847 5V3Z" fill="#F8F4E3"/>
</svg>
